<svg xmlns="http://www.w3.org/2000/svg" width="48" height="48" viewBox="0 0 48 48">
  <defs>
    <linearGradient id="grad_wrench" x1="0%" y1="0%" x2="100%" y2="100%">
      <stop offset="0%" style="stop-color:#3B82F6;stop-opacity:1" />
      <stop offset="100%" style="stop-color:#8B5CF6;stop-opacity:1" />
    </linearGradient>
  </defs>
  <path d="M10 38C10 38 8 36 10 34C12 32 14 34 14 34L20 28C18 24 18 18 22 14C26 10 32 10 36 14C40 18 40 24 36 28C32 32 26 32 22 30L16 36C16 36 18 38 16 40C14 42 10 38 10 38Z" fill="url(#grad_wrench)"/>
  <circle cx="34" cy="16" r="4" fill="white" opacity="0.5"/>
</svg>