<svg xmlns="http://www.w3.org/2000/svg" width="48" height="48" viewBox="0 0 48 48">
  <defs>
    <linearGradient id="gradHelp" x1="0%" y1="0%" x2="100%" y2="100%">
      <stop offset="0%" style="stop-color:#8B5CF6;stop-opacity:1" />
      <stop offset="100%" style="stop-color:#A78BFA;stop-opacity:1" />
    </linearGradient>
  </defs>
  <!-- 打开的书本 -->
  <path d="M8 10C8 8 10 6 14 6H22V18H8V10Z" fill="url(#gradHelp)"/>
  <path d="M26 6H34C38 6 40 8 40 10V18H26V6Z" fill="url(#gradHelp)"/>
  <path d="M22 6V18L24 20L26 18V6" fill="url(#gradHelp)"/>
  <!-- 书页线条 -->
  <path d="M12 10H18M12 14H16" stroke="white" stroke-width="2" stroke-linecap="round" opacity="0.6"/>
  <path d="M30 10H36M30 14H34" stroke="white" stroke-width="2" stroke-linecap="round" opacity="0.6"/>
  <!-- 问号 -->
  <circle cx="24" cy="34" r="10" fill="url(#gradHelp)"/>
  <path d="M21 31C21 28 24 27 26 29C28 31 26 33 24 35" stroke="white" stroke-width="3" stroke-linecap="round" fill="none"/>
  <circle cx="24" cy="39" r="1.5" fill="white"/>
</svg>
