<svg xmlns="http://www.w3.org/2000/svg" width="48" height="48" viewBox="0 0 48 48">
  <defs>
    <linearGradient id="grad70" x1="0%" y1="0%" x2="100%" y2="100%">
      <stop offset="0%" style="stop-color:#10B981;stop-opacity:1" />
      <stop offset="100%" style="stop-color:#34D399;stop-opacity:1" />
    </linearGradient>
  </defs>
  <rect x="4" y="8" width="40" height="28" rx="6" fill="url(#grad70)"/>
  <path d="M10 8V12C10 14.2091 11.7909 16 14 16H38L44 22V12C44 9.79086 42.2091 8 40 8H10Z" fill="url(#grad70)"/>
  <ellipse cx="17" cy="20" rx="2.5" ry="2.5" fill="white" opacity="0.9"/>
  <ellipse cx="24" cy="20" rx="2.5" ry="2.5" fill="white" opacity="0.9"/>
  <ellipse cx="31" cy="20" rx="2.5" ry="2.5" fill="white" opacity="0.9"/>
  <path d="M16 8C16 8 18 6 24 6C30 6 32 8 32 8V12C32 12 30 10 24 10C18 10 16 12 16 12V8Z" fill="url(#grad70)"/>
</svg>